<?xml version="1.0" encoding="UTF-8"?>
<svg width="164px" height="66px" viewBox="0 0 164 66" version="1.1" xmlns="http://www.w3.org/2000/svg" xmlns:xlink="http://www.w3.org/1999/xlink">
    <!-- Generator: Sketch 59 (86127) - https://sketch.com -->
    <title>Logo BI</title>
    <desc>Created with Sketch.</desc>
    <defs>
        <polygon id="path-1" points="0 0.279033868 17.2915052 0.279033868 17.2915052 24.4411159 0 24.4411159"></polygon>
        <polygon id="path-3" points="0.277104456 0.216327986 19.0526196 0.216327986 19.0526196 26.6347986 0.277104456 26.6347986"></polygon>
        <polygon id="path-5" points="0.149792513 0.154323708 21.259779 0.154323708 21.259779 26.0177961 0.149792513 26.0177961"></polygon>
    </defs>
    <g id="Page-1" stroke="none" stroke-width="1" fill="none" fill-rule="evenodd">
        <g id="Home" transform="translate(-83.000000, -23.000000)">
            <g id="Menu-bar">
                <g id="Logo-BI" transform="translate(83.000000, 23.000000)">
                    <path d="M32.171538,7.93181176 L32.171538,12.5963109 L30.1085291,12.5963109 C27.4769283,12.5963109 25.8413134,14.5178296 25.8413134,17.6075194 L25.8413134,23.3016228 L20.9748107,26.2697012 L20.9713027,26.2697012 L20.9713027,7.99904884 L25.6056913,7.99904884 L25.6056913,10.6712841 C26.3628392,9.25112014 28.0355807,7.93181176 30.3105326,7.93181176 L32.171538,7.93181176 Z" id="Fill-1" fill="#FFFFFF"></path>
                    <path d="M43.5240799,22.281344 C40.8097483,22.281344 38.9867465,20.2268128 38.9867465,17.1689875 C38.9867465,14.1386417 40.8383971,12.0221355 43.490169,12.0221355 C46.224087,12.0221355 48.0611209,14.0904064 48.0611209,17.1689875 C48.0611209,20.1791622 46.1957305,22.281344 43.5240799,22.281344 L43.5240799,22.281344 Z M47.9596806,10.1342353 C47.3092349,9.28412478 45.6093062,7.55817825 42.5424185,7.55817825 C37.541734,7.55817825 34.0489141,11.5380285 34.0489141,17.2362246 C34.0489141,22.9040178 37.5163009,26.7113904 42.6774774,26.7113904 C45.5771494,26.7113904 47.2241654,25.2231123 48.02721,24.1680749 L48.02721,26.2711337 L52.8293989,26.2711337 L52.8293989,7.99843494 L47.9596806,7.99843494 L47.9596806,10.1342353 Z" id="Fill-3" fill="#FFFFFF"></path>
                    <path d="M73.476882,14.393441 L73.476882,23.301769 L68.6071636,26.2698474 L68.6071636,15.5446567 C68.6071636,13.518482 67.3281975,12.158539 65.4236342,12.158539 C63.4413098,12.158539 62.0041904,13.7102538 62.0041904,15.8475159 L62.0041904,26.2698474 L57.130964,26.2698474 L57.130964,7.99919501 L61.7989711,7.99919501 L61.7989711,9.95111658 C62.5932456,8.7800221 64.289374,7.55835365 66.8101797,7.55835365 C70.797923,7.55835365 73.476882,10.3045497 73.476882,14.393441" id="Fill-5" fill="#FFFFFF"></path>
                    <g id="Group-9" transform="translate(0.000000, 1.830018)">
                        <mask id="mask-2" fill="white">
                            <use xlink:href="#path-1"></use>
                        </mask>
                        <g id="Clip-8"></g>
                        <path d="M8.56120927,20.146713 L4.80236435,20.146713 L4.80236435,13.8474759 L8.42585811,13.8474759 C10.1936086,13.8474759 12.0829704,14.6657219 12.0829704,16.9631836 C12.0829704,19.7330588 9.87642496,20.146713 8.56120927,20.146713 M13.81681,11.7341854 C15.5334018,10.6519608 16.5130168,8.84445276 16.5130168,6.74197861 C16.5130168,2.87613904 13.494072,0.279033868 9.00088128,0.279033868 L-0.000116934046,0.279033868 L-0.000116934046,4.47228877 L4.80236435,4.47228877 L5.82085989,4.47228877 L8.5272984,4.47228877 C10.3505925,4.47228877 11.5751843,5.56094474 11.5751843,7.18165062 C11.5751843,8.90993583 10.3523465,10.0263636 8.45918431,10.0263636 L4.80236435,10.0263636 L4.80236435,6.51921925 L-0.000116934046,9.44607843 L-0.000116934046,24.4411159 L9.67792941,24.4411159 C13.4613305,24.4411159 17.2915052,22.0007023 17.2915052,17.3356185 C17.2915052,13.7518824 14.8660007,12.2256007 13.81681,11.7341854" id="Fill-7" fill="#FFFFFF" mask="url(#mask-2)"></path>
                    </g>
                    <g id="Group-12" transform="translate(76.299465, 0.076007)">
                        <mask id="mask-4" fill="white">
                            <use xlink:href="#path-3"></use>
                        </mask>
                        <g id="Clip-11"></g>
                        <path d="M9.75080856,22.2059216 C7.03823102,22.2059216 5.21405989,20.1531444 5.21405989,17.0938574 C5.21405989,14.0649733 7.06483351,11.9481747 9.71719002,11.9481747 C12.4496463,11.9481747 14.2875572,14.0179073 14.2875572,17.0938574 C14.2875572,20.1057861 12.4195358,22.2059216 9.75080856,22.2059216 L9.75080856,22.2059216 Z M14.1864093,3.18484492 L14.1864093,10.0599822 C13.5333326,9.21221034 11.8339886,7.48567914 8.7679779,7.48567914 C3.77021676,7.48567914 0.277104456,11.4634831 0.277104456,17.1610945 C0.277104456,22.8285954 3.74332193,26.6347986 8.90274439,26.6347986 C11.8035857,26.6347986 13.4491401,25.1473975 14.2536463,24.0938217 L14.2536463,26.1939572 L19.0526196,26.1939572 L19.0526196,0.216181818 L14.1864093,3.18484492 Z" id="Fill-10" fill="#FFFFFF" mask="url(#mask-4)"></path>
                    </g>
                    <path d="M44.9360877,39.2539116 C42.4068043,39.2539116 40.7045369,40.4805497 39.909093,41.6548599 L39.909093,39.6956299 L35.2273462,39.6956299 L35.2273462,58.0265034 L40.1128506,58.0265034 L40.1128506,47.5705533 C40.1128506,45.4251059 41.5561091,43.8678367 43.5439879,43.8678367 C45.4541055,43.8678367 46.7374567,45.233334 46.7374567,47.2647708 L46.7374567,58.0265034 L51.6232535,58.0265034 L51.6232535,46.1106317 C51.6232535,42.0094624 48.9358168,39.2539116 44.9360877,39.2539116" id="Fill-13" fill="#FFFFFF"></path>
                    <path d="M89.3250702,50.185374 C89.3250702,52.3504078 87.8818118,53.9217091 85.8936406,53.9217091 C83.9931701,53.9217091 82.6659686,52.5108998 82.6659686,50.4905718 L82.6659686,39.695513 L77.7807565,39.695513 L77.7807565,51.6110923 C77.7807565,55.712554 80.4813483,58.4681048 84.5015408,58.4681048 C87.0442717,58.4681048 88.7488777,57.2066788 89.5285355,56.0168749 L89.5285355,58.0263865 L94.2102824,58.0263865 L94.2102824,39.695513 L89.3250702,39.695513 L89.3250702,50.185374 Z" id="Fill-15" fill="#FFFFFF"></path>
                    <path d="M105.871413,46.4863701 C103.721581,46.1662631 102.403734,45.9142702 102.403734,44.8203522 C102.403734,43.7881169 103.470465,43.1210082 105.121574,43.1210082 C106.834365,43.1210082 107.846137,43.7919173 108.046386,45.0612364 L108.078251,45.2600242 L112.438429,45.2600242 L112.419135,45.0065697 C112.148433,41.4582061 109.36511,39.2539993 105.155484,39.2539993 C100.878329,39.2539993 97.8912492,41.5985269 97.8912492,44.9562881 C97.8912492,49.5146695 101.549531,50.132666 104.488668,50.6284663 C106.756019,51.011133 108.145196,51.3122381 108.145196,52.6297925 C108.145196,53.8038103 107.012397,54.5331865 105.189395,54.5331865 C103.85547,54.5331865 102.22424,54.1630902 102.028376,52.4000171 L102.004697,52.1904128 L97.472333,52.1904128 L97.4843187,52.437436 C97.6711209,56.3263701 100.383406,58.4680171 105.121574,58.4680171 C109.843663,58.4680171 112.894764,56.0831472 112.894764,52.3921241 C112.894764,47.5314681 108.835691,46.9275037 105.871413,46.4863701" id="Fill-17" fill="#FFFFFF"></path>
                    <path d="M122.723217,31.9583964 L118.109292,34.7721219 L118.109292,38.606974 C118.109292,39.3094553 117.714932,39.7289561 117.054547,39.7289561 L114.815845,39.7289561 L114.815845,43.69799 L117.83742,43.69799 L117.83742,51.8485854 C117.83742,55.7749383 120.089278,58.0265034 124.015338,58.0265034 L127.544408,58.0265034 L127.544408,53.8882075 L124.932394,53.8882075 C123.466625,53.8882075 122.723217,53.1450916 122.723217,51.6793234 L122.723217,43.69799 L127.646433,43.69799 L127.646433,39.6956299 L122.723217,39.6956299 L122.723217,31.9583964 Z" id="Fill-19" fill="#FFFFFF"></path>
                    <path d="M136.222873,42.3768399 L136.222873,39.6955422 L131.575037,39.6955422 L131.575037,58.0264157 L136.460541,58.0264157 L136.460541,49.336462 C136.460541,46.2353711 138.100541,44.3088827 140.740327,44.3088827 L142.809768,44.3088827 L142.809768,39.6274282 L140.944377,39.6274282 C138.658901,39.6274282 136.982944,40.9531679 136.222873,42.3768399" id="Fill-21" fill="#FFFFFF"></path>
                    <g id="Group-25" transform="translate(142.659537, 39.541248)">
                        <mask id="mask-6" fill="white">
                            <use xlink:href="#path-5"></use>
                        </mask>
                        <g id="Clip-24"></g>
                        <path d="M16.030313,0.154323708 L11.7487729,12.6259244 L7.3315893,0.154323708 L2.1701205,0.154323708 L9.36039501,18.7918567 L8.91604563,19.9641205 C8.8400385,20.1561847 8.76023102,20.3359708 8.67194581,20.4961704 C8.155682,21.4523986 7.39181034,21.8847622 6.25141105,21.8847622 L0.149792513,21.8847622 L3.93056257,26.0177961 L6.72762496,26.0177961 C9.95646631,26.0177961 11.9770866,24.5973398 13.2455287,21.4246267 C13.2852863,21.3243558 13.3253362,21.2164841 13.3653861,21.1124128 L21.2598959,0.154323708 L16.030313,0.154323708 Z" id="Fill-23" fill="#FFFFFF" mask="url(#mask-6)"></path>
                    </g>
                    <polygon id="Fill-26" fill="#FFFFFF" points="30.827498 31.9581041 30.827498 58.0276727 25.8396763 58.0276727 25.8396763 34.99722"></polygon>
                    <path d="M64.1331209,54.0231201 C61.4082652,54.0231201 59.5817554,51.9636193 59.5817554,48.8979009 C59.5817554,45.8558617 61.4386681,43.7352627 64.0959943,43.7352627 C66.841021,43.7352627 68.6812706,45.8082111 68.6812706,48.8979009 C68.6812706,51.916261 66.8106182,54.0231201 64.1331209,54.0231201 L64.1331209,54.0231201 Z M68.5798303,35.0309847 L68.5798303,41.8409312 C67.9282153,40.986728 66.2230246,39.2581504 63.1473668,39.2581504 C58.1300193,39.2581504 54.6287216,43.2491094 54.6287216,48.965138 C54.6287216,54.6478403 58.1063401,58.4663216 63.2821333,58.4663216 C66.1894061,58.4663216 67.8437305,56.9742431 68.6473597,55.9171594 L68.6473597,58.0275266 L73.4653348,58.0275266 L73.4653348,32.0497512 L68.5798303,35.0309847 Z" id="Fill-28" fill="#FFFFFF"></path>
                </g>
            </g>
        </g>
    </g>
</svg>