<svg version="1.2" xmlns="http://www.w3.org/2000/svg" viewBox="0 0 250 250" width="250" height="250"><style>.a{fill:#09091a}.b{fill:#fff}.c{fill:#09091a;stroke:#000;stroke-miterlimit:100}</style><path class="a" d="m1.5 51c0-27.6 22.4-50 50-50h147c27.6 0 50 22.4 50 50v148c0 27.6-22.4 50-50 50h-147c-27.6 0-50-22.4-50-50z"/><path class="b" d="m125 218c-53.4 0-96.5-41.6-96.5-93 0-51.4 43.1-93 96.5-93 53.4 0 96.5 41.6 96.5 93 0 51.4-43.1 93-96.5 93z"/><path class="a" d="m102 216l-0.1-31.8-40.9-50.2 1-6 3.1-2.8 4.2-0.1h5.4l107.3-0.1 3.1 1 3.1 3.3v5.2l-2.2 6.5-6 5-7 9-11 12-14 17v32l-6.1 0.6 0.5-34.9 40.7-47.5-0.1-3.2h-116v2l41 49v35z"/><path class="c" d="m164.3 135.6l4.1 4-16.4 19.4-4.8-3.7 17.1-19.7z"/><path class="c" d="m142.3 160.9l4.7 3.1-5 7-5-4z"/><path class="a" d="m167 125v-38l-25-28h-43l-4.4 2.1-2.7 2-2.9 4.2-1 2.7v55h6v-53l0.4-2.2 0.4-1.1 1-1.8 1.7-1.5 2.5-0.4h36v16l0.5 1.9 0.8 2 2.9 3.3 3.9 2.5 2.7 1 5.3 0.4 8.9-0.1v33z"/><path class="a" d="m110 97v5h35v-5z"/><path class="a" d="m144 117v-6h-33v6z"/></svg>